<svg width="682" height="766" viewBox="0 0 682 766" fill="none" xmlns="http://www.w3.org/2000/svg">
<path d="M633.171 104L640.152 110.981L604.981 146.152L598 139.171L633.171 104Z" fill="white"/>
<path d="M648.562 314.609L655.543 321.59L613.981 363.152L607 356.171L648.562 314.609Z" fill="white"/>
<mask id="mask0_17_83" style="mask-type:alpha" maskUnits="userSpaceOnUse" x="0" y="138" width="628" height="628">
<path d="M314 396.012L491.021 138H628V765.109L490.3 642.391V376.159L314.5 630.498L138.7 376.159V642.391L0 766V138H136.979L314 396.012Z" fill="#D9D9D9"/>
</mask>
<g mask="url(#mask0_17_83)">
<path d="M-0.5 176L235 515L315 397L138 139L-0.5 130V176Z" fill="white"/>
<path d="M0 768.5V176.5L140 378L140.5 643L0 768.5Z" fill="white"/>
<path d="M230.933 517.995L511.069 108.567L651.051 106.379L661.507 775.297L416.537 779.126L323.735 648.561L230.933 517.995Z" fill="white"/>
</g>
<g filter="url(#filter0_d_17_83)">
<path d="M388.247 327.338L470.077 244.728V212.689L507 175.139V138H509V175.959L508.713 176.25L472.077 213.508V245.552L390.247 328.161V390.751L280.975 497.891V506.373L268.736 519.677L267.264 518.323L278.975 505.593V497.052L279.275 496.758L388.247 389.911V327.338Z" fill="white"/>
</g>
<g filter="url(#filter1_d_17_83)">
<path d="M550.5 137.5V181.391L411.5 332.39V397.402L336.5 475.402V495.923L301 530.422V567H299V529.577L334.5 495.077V474.598L409.5 396.597V331.609L548.5 180.609V137.5H550.5Z" fill="white"/>
</g>
<g filter="url(#filter2_d_17_83)">
<path d="M580 138V191.912L431 341.912V403.371L366 478.87V505.954L322.5 543.954V573H320.5V543.046L364 505.045V478.129L429 402.629V341.088L578 191.088V138H580Z" fill="white"/>
</g>
<g filter="url(#filter3_d_17_83)">
<path d="M605.5 138V201.417L453 352.416V395.5H451V351.583L603.5 200.583V138H605.5Z" fill="white"/>
</g>
<g filter="url(#filter4_d_17_83)">
<path d="M628 296.5V298.5H589.698L538 349.419V457.5H536V348.581L588.878 296.5H628Z" fill="white"/>
</g>
<g filter="url(#filter5_d_17_83)">
<path d="M509 344V497.308L508.827 497.562L499.327 511.562L497.673 510.438L507 496.692V344H509Z" fill="white"/>
</g>
<g filter="url(#filter6_d_17_83)">
<path d="M620.735 351.678L584.351 391.141V510.402L584.07 510.693L531 565.663V653H529V564.856L529.28 564.565L582.351 509.594V390.359L582.615 390.071L619.265 350.322L620.735 351.678Z" fill="white"/>
</g>
<g filter="url(#filter7_d_17_83)">
<path d="M614.2 509.714L559.5 563.419V670.5H557.5V562.58L612.8 508.286L614.2 509.714Z" fill="white"/>
</g>
<g filter="url(#filter8_d_17_83)">
<path d="M587 537V685H585V537H587Z" fill="white"/>
</g>
<g filter="url(#filter9_d_17_83)">
<path d="M612 563V713.5H610V563H612Z" fill="white"/>
</g>
<path d="M503 110H513V138H503V110Z" fill="white"/>
<path d="M545 38H555V138H545V38Z" fill="white"/>
<path d="M574 93H584V138H574V93Z" fill="white"/>
<path d="M605.91 61.0901L612.891 68.0711L580.981 99.981L574 93L605.91 61.0901Z" fill="white"/>
<path d="M517 90.5C517 85.2533 512.747 81 507.5 81C502.253 81 498 85.2533 498 90.5C498 95.7467 502.253 100 507.5 100V111C496.178 111 487 101.822 487 90.5C487 79.1782 496.178 70 507.5 70C518.822 70 528 79.1782 528 90.5C528 101.822 518.822 111 507.5 111V100C512.747 100 517 95.7467 517 90.5Z" fill="white"/>
<path d="M559 20.5C559 15.2533 554.747 11 549.5 11C544.253 11 540 15.2533 540 20.5C540 25.7467 544.253 30 549.5 30V41C538.178 41 529 31.8218 529 20.5C529 9.17816 538.178 0 549.5 0C560.822 0 570 9.17816 570 20.5C570 31.8218 560.822 41 549.5 41V30C554.747 30 559 25.7467 559 20.5Z" fill="white"/>
<path d="M630 53.5C630 48.2533 625.747 44 620.5 44C615.253 44 611 48.2533 611 53.5C611 58.7467 615.253 63 620.5 63V74C609.178 74 600 64.8218 600 53.5C600 42.1782 609.178 33 620.5 33C631.822 33 641 42.1782 641 53.5C641 64.8218 631.822 74 620.5 74V63C625.747 63 630 58.7467 630 53.5Z" fill="white"/>
<path d="M658 95.5C658 90.2533 653.747 86 648.5 86C643.253 86 639 90.2533 639 95.5C639 100.747 643.253 105 648.5 105V116C637.178 116 628 106.822 628 95.5C628 84.1782 637.178 75 648.5 75C659.822 75 669 84.1782 669 95.5C669 106.822 659.822 116 648.5 116V105C653.747 105 658 100.747 658 95.5Z" fill="white"/>
<path d="M671 308.5C671 303.253 666.747 299 661.5 299C656.253 299 652 303.253 652 308.5C652 313.747 656.253 318 661.5 318V329C650.178 329 641 319.822 641 308.5C641 297.178 650.178 288 661.5 288C672.822 288 682 297.178 682 308.5C682 319.822 672.822 329 661.5 329V318C666.747 318 671 313.747 671 308.5Z" fill="white"/>
<g filter="url(#filter10_d_17_83)">
<path d="M452 388L452.16 392.948L452.836 388.044L452.478 392.982L453.663 388.175L452.791 393.048L454.472 388.392L453.095 393.147L455.254 388.692L453.387 393.277L456 389.072L453.664 393.437L456.702 389.528L453.923 393.625L457.353 390.055L454.161 393.839L457.945 390.647L454.375 394.077L458.472 391.298L454.563 394.336L458.928 392L454.723 394.613L459.308 392.746L454.853 394.905L459.608 393.528L454.952 395.209L459.825 394.337L455.018 395.522L459.956 395.164L455.052 395.84L460 396L455.052 396.16L459.956 396.836L455.018 396.478L459.825 397.663L454.952 396.791L459.608 398.472L454.853 397.095L459.308 399.254L454.723 397.387L458.928 400L454.563 397.664L458.472 400.702L454.375 397.923L457.945 401.353L454.161 398.161L457.353 401.945L453.923 398.375L456.702 402.472L453.664 398.563L456 402.928L453.387 398.723L455.254 403.308L453.095 398.853L454.472 403.608L452.791 398.952L453.663 403.825L452.478 399.018L452.836 403.956L452.16 399.052L452 404L451.84 399.052L451.164 403.956L451.522 399.018L450.337 403.825L451.209 398.952L449.528 403.608L450.905 398.853L448.746 403.308L450.613 398.723L448 402.928L450.336 398.563L447.298 402.472L450.077 398.375L446.647 401.945L449.839 398.161L446.055 401.353L449.625 397.923L445.528 400.702L449.437 397.664L445.072 400L449.277 397.387L444.692 399.254L449.147 397.095L444.392 398.472L449.048 396.791L444.175 397.663L448.982 396.478L444.044 396.836L448.948 396.16L444 396L448.948 395.84L444.044 395.164L448.982 395.522L444.175 394.337L449.048 395.209L444.392 393.528L449.147 394.905L444.692 392.746L449.277 394.613L445.072 392L449.437 394.336L445.528 391.298L449.625 394.077L446.055 390.647L449.839 393.839L446.647 390.055L450.077 393.625L447.298 389.528L450.336 393.437L448 389.072L450.613 393.277L448.746 388.692L450.905 393.147L449.528 388.392L451.209 393.048L450.337 388.175L451.522 392.982L451.164 388.044L451.84 392.948L452 388Z" fill="white"/>
</g>
<g filter="url(#filter11_d_17_83)">
<path d="M436 272L436.16 276.948L436.836 272.044L436.478 276.982L437.663 272.175L436.791 277.048L438.472 272.392L437.095 277.147L439.254 272.692L437.387 277.277L440 273.072L437.664 277.437L440.702 273.528L437.923 277.625L441.353 274.055L438.161 277.839L441.945 274.647L438.375 278.077L442.472 275.298L438.563 278.336L442.928 276L438.723 278.613L443.308 276.746L438.853 278.905L443.608 277.528L438.952 279.209L443.825 278.337L439.018 279.522L443.956 279.164L439.052 279.84L444 280L439.052 280.16L443.956 280.836L439.018 280.478L443.825 281.663L438.952 280.791L443.608 282.472L438.853 281.095L443.308 283.254L438.723 281.387L442.928 284L438.563 281.664L442.472 284.702L438.375 281.923L441.945 285.353L438.161 282.161L441.353 285.945L437.923 282.375L440.702 286.472L437.664 282.563L440 286.928L437.387 282.723L439.254 287.308L437.095 282.853L438.472 287.608L436.791 282.952L437.663 287.825L436.478 283.018L436.836 287.956L436.16 283.052L436 288L435.84 283.052L435.164 287.956L435.522 283.018L434.337 287.825L435.209 282.952L433.528 287.608L434.905 282.853L432.746 287.308L434.613 282.723L432 286.928L434.336 282.563L431.298 286.472L434.077 282.375L430.647 285.945L433.839 282.161L430.055 285.353L433.625 281.923L429.528 284.702L433.437 281.664L429.072 284L433.277 281.387L428.692 283.254L433.147 281.095L428.392 282.472L433.048 280.791L428.175 281.663L432.982 280.478L428.044 280.836L432.948 280.16L428 280L432.948 279.84L428.044 279.164L432.982 279.522L428.175 278.337L433.048 279.209L428.392 277.528L433.147 278.905L428.692 276.746L433.277 278.613L429.072 276L433.437 278.336L429.528 275.298L433.625 278.077L430.055 274.647L433.839 277.839L430.647 274.055L434.077 277.625L431.298 273.528L434.336 277.437L432 273.072L434.613 277.277L432.746 272.692L434.905 277.147L433.528 272.392L435.209 277.048L434.337 272.175L435.522 276.982L435.164 272.044L435.84 276.948L436 272Z" fill="white"/>
</g>
<g filter="url(#filter12_d_17_83)">
<path d="M537 452L537.16 456.948L537.836 452.044L537.478 456.982L538.663 452.175L537.791 457.048L539.472 452.392L538.095 457.147L540.254 452.692L538.387 457.277L541 453.072L538.664 457.437L541.702 453.528L538.923 457.625L542.353 454.055L539.161 457.839L542.945 454.647L539.375 458.077L543.472 455.298L539.563 458.336L543.928 456L539.723 458.613L544.308 456.746L539.853 458.905L544.608 457.528L539.952 459.209L544.825 458.337L540.018 459.522L544.956 459.164L540.052 459.84L545 460L540.052 460.16L544.956 460.836L540.018 460.478L544.825 461.663L539.952 460.791L544.608 462.472L539.853 461.095L544.308 463.254L539.723 461.387L543.928 464L539.563 461.664L543.472 464.702L539.375 461.923L542.945 465.353L539.161 462.161L542.353 465.945L538.923 462.375L541.702 466.472L538.664 462.563L541 466.928L538.387 462.723L540.254 467.308L538.095 462.853L539.472 467.608L537.791 462.952L538.663 467.825L537.478 463.018L537.836 467.956L537.16 463.052L537 468L536.84 463.052L536.164 467.956L536.522 463.018L535.337 467.825L536.209 462.952L534.528 467.608L535.905 462.853L533.746 467.308L535.613 462.723L533 466.928L535.336 462.563L532.298 466.472L535.077 462.375L531.647 465.945L534.839 462.161L531.055 465.353L534.625 461.923L530.528 464.702L534.437 461.664L530.072 464L534.277 461.387L529.692 463.254L534.147 461.095L529.392 462.472L534.048 460.791L529.175 461.663L533.982 460.478L529.044 460.836L533.948 460.16L529 460L533.948 459.84L529.044 459.164L533.982 459.522L529.175 458.337L534.048 459.209L529.392 457.528L534.147 458.905L529.692 456.746L534.277 458.613L530.072 456L534.437 458.336L530.528 455.298L534.625 458.077L531.055 454.647L534.839 457.839L531.647 454.055L535.077 457.625L532.298 453.528L535.336 457.437L533 453.072L535.613 457.277L533.746 452.692L535.905 457.147L534.528 452.392L536.209 457.048L535.337 452.175L536.522 456.982L536.164 452.044L536.84 456.948L537 452Z" fill="white"/>
</g>
<g filter="url(#filter13_d_17_83)">
<path d="M508 336L508.16 340.948L508.836 336.044L508.478 340.982L509.663 336.175L508.791 341.048L510.472 336.392L509.095 341.147L511.254 336.692L509.387 341.277L512 337.072L509.664 341.437L512.702 337.528L509.923 341.625L513.353 338.055L510.161 341.839L513.945 338.647L510.375 342.077L514.472 339.298L510.563 342.336L514.928 340L510.723 342.613L515.308 340.746L510.853 342.905L515.608 341.528L510.952 343.209L515.825 342.337L511.018 343.522L515.956 343.164L511.052 343.84L516 344L511.052 344.16L515.956 344.836L511.018 344.478L515.825 345.663L510.952 344.791L515.608 346.472L510.853 345.095L515.308 347.254L510.723 345.387L514.928 348L510.563 345.664L514.472 348.702L510.375 345.923L513.945 349.353L510.161 346.161L513.353 349.945L509.923 346.375L512.702 350.472L509.664 346.563L512 350.928L509.387 346.723L511.254 351.308L509.095 346.853L510.472 351.608L508.791 346.952L509.663 351.825L508.478 347.018L508.836 351.956L508.16 347.052L508 352L507.84 347.052L507.164 351.956L507.522 347.018L506.337 351.825L507.209 346.952L505.528 351.608L506.905 346.853L504.746 351.308L506.613 346.723L504 350.928L506.336 346.563L503.298 350.472L506.077 346.375L502.647 349.945L505.839 346.161L502.055 349.353L505.625 345.923L501.528 348.702L505.437 345.664L501.072 348L505.277 345.387L500.692 347.254L505.147 345.095L500.392 346.472L505.048 344.791L500.175 345.663L504.982 344.478L500.044 344.836L504.948 344.16L500 344L504.948 343.84L500.044 343.164L504.982 343.522L500.175 342.337L505.048 343.209L500.392 341.528L505.147 342.905L500.692 340.746L505.277 342.613L501.072 340L505.437 342.336L501.528 339.298L505.625 342.077L502.055 338.647L505.839 341.839L502.647 338.055L506.077 341.625L503.298 337.528L506.336 341.437L504 337.072L506.613 341.277L504.746 336.692L506.905 341.147L505.528 336.392L507.209 341.048L506.337 336.175L507.522 340.982L507.164 336.044L507.84 340.948L508 336Z" fill="white"/>
</g>
<g filter="url(#filter14_d_17_83)">
<path d="M559 204L559.16 208.948L559.836 204.044L559.478 208.982L560.663 204.175L559.791 209.048L561.472 204.392L560.095 209.147L562.254 204.692L560.387 209.277L563 205.072L560.664 209.437L563.702 205.528L560.923 209.625L564.353 206.055L561.161 209.839L564.945 206.647L561.375 210.077L565.472 207.298L561.563 210.336L565.928 208L561.723 210.613L566.308 208.746L561.853 210.905L566.608 209.528L561.952 211.209L566.825 210.337L562.018 211.522L566.956 211.164L562.052 211.84L567 212L562.052 212.16L566.956 212.836L562.018 212.478L566.825 213.663L561.952 212.791L566.608 214.472L561.853 213.095L566.308 215.254L561.723 213.387L565.928 216L561.563 213.664L565.472 216.702L561.375 213.923L564.945 217.353L561.161 214.161L564.353 217.945L560.923 214.375L563.702 218.472L560.664 214.563L563 218.928L560.387 214.723L562.254 219.308L560.095 214.853L561.472 219.608L559.791 214.952L560.663 219.825L559.478 215.018L559.836 219.956L559.16 215.052L559 220L558.84 215.052L558.164 219.956L558.522 215.018L557.337 219.825L558.209 214.952L556.528 219.608L557.905 214.853L555.746 219.308L557.613 214.723L555 218.928L557.336 214.563L554.298 218.472L557.077 214.375L553.647 217.945L556.839 214.161L553.055 217.353L556.625 213.923L552.528 216.702L556.437 213.664L552.072 216L556.277 213.387L551.692 215.254L556.147 213.095L551.392 214.472L556.048 212.791L551.175 213.663L555.982 212.478L551.044 212.836L555.948 212.16L551 212L555.948 211.84L551.044 211.164L555.982 211.522L551.175 210.337L556.048 211.209L551.392 209.528L556.147 210.905L551.692 208.746L556.277 210.613L552.072 208L556.437 210.336L552.528 207.298L556.625 210.077L553.055 206.647L556.839 209.839L553.647 206.055L557.077 209.625L554.298 205.528L557.336 209.437L555 205.072L557.613 209.277L555.746 204.692L557.905 209.147L556.528 204.392L558.209 209.048L557.337 204.175L558.522 208.982L558.164 204.044L558.84 208.948L559 204Z" fill="white"/>
</g>
<g filter="url(#filter15_d_17_83)">
<path d="M586 677L586.16 681.948L586.836 677.044L586.478 681.982L587.663 677.175L586.791 682.048L588.472 677.392L587.095 682.147L589.254 677.692L587.387 682.277L590 678.072L587.664 682.437L590.702 678.528L587.923 682.625L591.353 679.055L588.161 682.839L591.945 679.647L588.375 683.077L592.472 680.298L588.563 683.336L592.928 681L588.723 683.613L593.308 681.746L588.853 683.905L593.608 682.528L588.952 684.209L593.825 683.337L589.018 684.522L593.956 684.164L589.052 684.84L594 685L589.052 685.16L593.956 685.836L589.018 685.478L593.825 686.663L588.952 685.791L593.608 687.472L588.853 686.095L593.308 688.254L588.723 686.387L592.928 689L588.563 686.664L592.472 689.702L588.375 686.923L591.945 690.353L588.161 687.161L591.353 690.945L587.923 687.375L590.702 691.472L587.664 687.563L590 691.928L587.387 687.723L589.254 692.308L587.095 687.853L588.472 692.608L586.791 687.952L587.663 692.825L586.478 688.018L586.836 692.956L586.16 688.052L586 693L585.84 688.052L585.164 692.956L585.522 688.018L584.337 692.825L585.209 687.952L583.528 692.608L584.905 687.853L582.746 692.308L584.613 687.723L582 691.928L584.336 687.563L581.298 691.472L584.077 687.375L580.647 690.945L583.839 687.161L580.055 690.353L583.625 686.923L579.528 689.702L583.437 686.664L579.072 689L583.277 686.387L578.692 688.254L583.147 686.095L578.392 687.472L583.048 685.791L578.175 686.663L582.982 685.478L578.044 685.836L582.948 685.16L578 685L582.948 684.84L578.044 684.164L582.982 684.522L578.175 683.337L583.048 684.209L578.392 682.528L583.147 683.905L578.692 681.746L583.277 683.613L579.072 681L583.437 683.336L579.528 680.298L583.625 683.077L580.055 679.647L583.839 682.839L580.647 679.055L584.077 682.625L581.298 678.528L584.336 682.437L582 678.072L584.613 682.277L582.746 677.692L584.905 682.147L583.528 677.392L585.209 682.048L584.337 677.175L585.522 681.982L585.164 677.044L585.84 681.948L586 677Z" fill="white"/>
</g>
<g filter="url(#filter16_d_17_83)">
<path d="M567 518L567.16 522.948L567.836 518.044L567.478 522.982L568.663 518.175L567.791 523.048L569.472 518.392L568.095 523.147L570.254 518.692L568.387 523.277L571 519.072L568.664 523.437L571.702 519.528L568.923 523.625L572.353 520.055L569.161 523.839L572.945 520.647L569.375 524.077L573.472 521.298L569.563 524.336L573.928 522L569.723 524.613L574.308 522.746L569.853 524.905L574.608 523.528L569.952 525.209L574.825 524.337L570.018 525.522L574.956 525.164L570.052 525.84L575 526L570.052 526.16L574.956 526.836L570.018 526.478L574.825 527.663L569.952 526.791L574.608 528.472L569.853 527.095L574.308 529.254L569.723 527.387L573.928 530L569.563 527.664L573.472 530.702L569.375 527.923L572.945 531.353L569.161 528.161L572.353 531.945L568.923 528.375L571.702 532.472L568.664 528.563L571 532.928L568.387 528.723L570.254 533.308L568.095 528.853L569.472 533.608L567.791 528.952L568.663 533.825L567.478 529.018L567.836 533.956L567.16 529.052L567 534L566.84 529.052L566.164 533.956L566.522 529.018L565.337 533.825L566.209 528.952L564.528 533.608L565.905 528.853L563.746 533.308L565.613 528.723L563 532.928L565.336 528.563L562.298 532.472L565.077 528.375L561.647 531.945L564.839 528.161L561.055 531.353L564.625 527.923L560.528 530.702L564.437 527.664L560.072 530L564.277 527.387L559.692 529.254L564.147 527.095L559.392 528.472L564.048 526.791L559.175 527.663L563.982 526.478L559.044 526.836L563.948 526.16L559 526L563.948 525.84L559.044 525.164L563.982 525.522L559.175 524.337L564.048 525.209L559.392 523.528L564.147 524.905L559.692 522.746L564.277 524.613L560.072 522L564.437 524.336L560.528 521.298L564.625 524.077L561.055 520.647L564.839 523.839L561.647 520.055L565.077 523.625L562.298 519.528L565.336 523.437L563 519.072L565.613 523.277L563.746 518.692L565.905 523.147L564.528 518.392L566.209 523.048L565.337 518.175L566.522 522.982L566.164 518.044L566.84 522.948L567 518Z" fill="white"/>
</g>
<g filter="url(#filter17_d_17_83)">
<path d="M270 509L270.16 513.948L270.836 509.044L270.478 513.982L271.663 509.175L270.791 514.048L272.472 509.392L271.095 514.147L273.254 509.692L271.387 514.277L274 510.072L271.664 514.437L274.702 510.528L271.923 514.625L275.353 511.055L272.161 514.839L275.945 511.647L272.375 515.077L276.472 512.298L272.563 515.336L276.928 513L272.723 515.613L277.308 513.746L272.853 515.905L277.608 514.528L272.952 516.209L277.825 515.337L273.018 516.522L277.956 516.164L273.052 516.84L278 517L273.052 517.16L277.956 517.836L273.018 517.478L277.825 518.663L272.952 517.791L277.608 519.472L272.853 518.095L277.308 520.254L272.723 518.387L276.928 521L272.563 518.664L276.472 521.702L272.375 518.923L275.945 522.353L272.161 519.161L275.353 522.945L271.923 519.375L274.702 523.472L271.664 519.563L274 523.928L271.387 519.723L273.254 524.308L271.095 519.853L272.472 524.608L270.791 519.952L271.663 524.825L270.478 520.018L270.836 524.956L270.16 520.052L270 525L269.84 520.052L269.164 524.956L269.522 520.018L268.337 524.825L269.209 519.952L267.528 524.608L268.905 519.853L266.746 524.308L268.613 519.723L266 523.928L268.336 519.563L265.298 523.472L268.077 519.375L264.647 522.945L267.839 519.161L264.055 522.353L267.625 518.923L263.528 521.702L267.437 518.664L263.072 521L267.277 518.387L262.692 520.254L267.147 518.095L262.392 519.472L267.048 517.791L262.175 518.663L266.982 517.478L262.044 517.836L266.948 517.16L262 517L266.948 516.84L262.044 516.164L266.982 516.522L262.175 515.337L267.048 516.209L262.392 514.528L267.147 515.905L262.692 513.746L267.277 515.613L263.072 513L267.437 515.336L263.528 512.298L267.625 515.077L264.055 511.647L267.839 514.839L264.647 511.055L268.077 514.625L265.298 510.528L268.336 514.437L266 510.072L268.613 514.277L266.746 509.692L268.905 514.147L267.528 509.392L269.209 514.048L268.337 509.175L269.522 513.982L269.164 509.044L269.84 513.948L270 509Z" fill="white"/>
</g>
<g filter="url(#filter18_d_17_83)">
<path d="M361 441L361.16 445.948L361.836 441.044L361.478 445.982L362.663 441.175L361.791 446.048L363.472 441.392L362.095 446.147L364.254 441.692L362.387 446.277L365 442.072L362.664 446.437L365.702 442.528L362.923 446.625L366.353 443.055L363.161 446.839L366.945 443.647L363.375 447.077L367.472 444.298L363.563 447.336L367.928 445L363.723 447.613L368.308 445.746L363.853 447.905L368.608 446.528L363.952 448.209L368.825 447.337L364.018 448.522L368.956 448.164L364.052 448.84L369 449L364.052 449.16L368.956 449.836L364.018 449.478L368.825 450.663L363.952 449.791L368.608 451.472L363.853 450.095L368.308 452.254L363.723 450.387L367.928 453L363.563 450.664L367.472 453.702L363.375 450.923L366.945 454.353L363.161 451.161L366.353 454.945L362.923 451.375L365.702 455.472L362.664 451.563L365 455.928L362.387 451.723L364.254 456.308L362.095 451.853L363.472 456.608L361.791 451.952L362.663 456.825L361.478 452.018L361.836 456.956L361.16 452.052L361 457L360.84 452.052L360.164 456.956L360.522 452.018L359.337 456.825L360.209 451.952L358.528 456.608L359.905 451.853L357.746 456.308L359.613 451.723L357 455.928L359.336 451.563L356.298 455.472L359.077 451.375L355.647 454.945L358.839 451.161L355.055 454.353L358.625 450.923L354.528 453.702L358.437 450.664L354.072 453L358.277 450.387L353.692 452.254L358.147 450.095L353.392 451.472L358.048 449.791L353.175 450.663L357.982 449.478L353.044 449.836L357.948 449.16L353 449L357.948 448.84L353.044 448.164L357.982 448.522L353.175 447.337L358.048 448.209L353.392 446.528L358.147 447.905L353.692 445.746L358.277 447.613L354.072 445L358.437 447.336L354.528 444.298L358.625 447.077L355.055 443.647L358.839 446.839L355.647 443.055L359.077 446.625L356.298 442.528L359.336 446.437L357 442.072L359.613 446.277L357.746 441.692L359.905 446.147L358.528 441.392L360.209 446.048L359.337 441.175L360.522 445.982L360.164 441.044L360.84 445.948L361 441Z" fill="white"/>
</g>
<g filter="url(#filter19_d_17_83)">
<path d="M322 565L322.16 569.948L322.836 565.044L322.478 569.982L323.663 565.175L322.791 570.048L324.472 565.392L323.095 570.147L325.254 565.692L323.387 570.277L326 566.072L323.664 570.437L326.702 566.528L323.923 570.625L327.353 567.055L324.161 570.839L327.945 567.647L324.375 571.077L328.472 568.298L324.563 571.336L328.928 569L324.723 571.613L329.308 569.746L324.853 571.905L329.608 570.528L324.952 572.209L329.825 571.337L325.018 572.522L329.956 572.164L325.052 572.84L330 573L325.052 573.16L329.956 573.836L325.018 573.478L329.825 574.663L324.952 573.791L329.608 575.472L324.853 574.095L329.308 576.254L324.723 574.387L328.928 577L324.563 574.664L328.472 577.702L324.375 574.923L327.945 578.353L324.161 575.161L327.353 578.945L323.923 575.375L326.702 579.472L323.664 575.563L326 579.928L323.387 575.723L325.254 580.308L323.095 575.853L324.472 580.608L322.791 575.952L323.663 580.825L322.478 576.018L322.836 580.956L322.16 576.052L322 581L321.84 576.052L321.164 580.956L321.522 576.018L320.337 580.825L321.209 575.952L319.528 580.608L320.905 575.853L318.746 580.308L320.613 575.723L318 579.928L320.336 575.563L317.298 579.472L320.077 575.375L316.647 578.945L319.839 575.161L316.055 578.353L319.625 574.923L315.528 577.702L319.437 574.664L315.072 577L319.277 574.387L314.692 576.254L319.147 574.095L314.392 575.472L319.048 573.791L314.175 574.663L318.982 573.478L314.044 573.836L318.948 573.16L314 573L318.948 572.84L314.044 572.164L318.982 572.522L314.175 571.337L319.048 572.209L314.392 570.528L319.147 571.905L314.692 569.746L319.277 571.613L315.072 569L319.437 571.336L315.528 568.298L319.625 571.077L316.055 567.647L319.839 570.839L316.647 567.055L320.077 570.625L317.298 566.528L320.336 570.437L318 566.072L320.613 570.277L318.746 565.692L320.905 570.147L319.528 565.392L321.209 570.048L320.337 565.175L321.522 569.982L321.164 565.044L321.84 569.948L322 565Z" fill="white"/>
</g>
<defs>
<filter id="filter0_d_17_83" x="261.764" y="132.5" width="252.736" height="392.677" filterUnits="userSpaceOnUse" color-interpolation-filters="sRGB">
<feFlood flood-opacity="0" result="BackgroundImageFix"/>
<feColorMatrix in="SourceAlpha" type="matrix" values="0 0 0 0 0 0 0 0 0 0 0 0 0 0 0 0 0 0 127 0" result="hardAlpha"/>
<feOffset/>
<feGaussianBlur stdDeviation="2.75"/>
<feComposite in2="hardAlpha" operator="out"/>
<feColorMatrix type="matrix" values="0 0 0 0 1 0 0 0 0 1 0 0 0 0 1 0 0 0 0.6 0"/>
<feBlend mode="normal" in2="BackgroundImageFix" result="effect1_dropShadow_17_83"/>
<feBlend mode="normal" in="SourceGraphic" in2="effect1_dropShadow_17_83" result="shape"/>
</filter>
<filter id="filter1_d_17_83" x="293.5" y="132" width="262.5" height="440.5" filterUnits="userSpaceOnUse" color-interpolation-filters="sRGB">
<feFlood flood-opacity="0" result="BackgroundImageFix"/>
<feColorMatrix in="SourceAlpha" type="matrix" values="0 0 0 0 0 0 0 0 0 0 0 0 0 0 0 0 0 0 127 0" result="hardAlpha"/>
<feOffset/>
<feGaussianBlur stdDeviation="2.75"/>
<feComposite in2="hardAlpha" operator="out"/>
<feColorMatrix type="matrix" values="0 0 0 0 1 0 0 0 0 1 0 0 0 0 1 0 0 0 0.6 0"/>
<feBlend mode="normal" in2="BackgroundImageFix" result="effect1_dropShadow_17_83"/>
<feBlend mode="normal" in="SourceGraphic" in2="effect1_dropShadow_17_83" result="shape"/>
</filter>
<filter id="filter2_d_17_83" x="315" y="132.5" width="270.5" height="446" filterUnits="userSpaceOnUse" color-interpolation-filters="sRGB">
<feFlood flood-opacity="0" result="BackgroundImageFix"/>
<feColorMatrix in="SourceAlpha" type="matrix" values="0 0 0 0 0 0 0 0 0 0 0 0 0 0 0 0 0 0 127 0" result="hardAlpha"/>
<feOffset/>
<feGaussianBlur stdDeviation="2.75"/>
<feComposite in2="hardAlpha" operator="out"/>
<feColorMatrix type="matrix" values="0 0 0 0 1 0 0 0 0 1 0 0 0 0 1 0 0 0 0.6 0"/>
<feBlend mode="normal" in2="BackgroundImageFix" result="effect1_dropShadow_17_83"/>
<feBlend mode="normal" in="SourceGraphic" in2="effect1_dropShadow_17_83" result="shape"/>
</filter>
<filter id="filter3_d_17_83" x="445.5" y="132.5" width="165.5" height="268.5" filterUnits="userSpaceOnUse" color-interpolation-filters="sRGB">
<feFlood flood-opacity="0" result="BackgroundImageFix"/>
<feColorMatrix in="SourceAlpha" type="matrix" values="0 0 0 0 0 0 0 0 0 0 0 0 0 0 0 0 0 0 127 0" result="hardAlpha"/>
<feOffset/>
<feGaussianBlur stdDeviation="2.75"/>
<feComposite in2="hardAlpha" operator="out"/>
<feColorMatrix type="matrix" values="0 0 0 0 1 0 0 0 0 1 0 0 0 0 1 0 0 0 0.6 0"/>
<feBlend mode="normal" in2="BackgroundImageFix" result="effect1_dropShadow_17_83"/>
<feBlend mode="normal" in="SourceGraphic" in2="effect1_dropShadow_17_83" result="shape"/>
</filter>
<filter id="filter4_d_17_83" x="530.5" y="291" width="103" height="172" filterUnits="userSpaceOnUse" color-interpolation-filters="sRGB">
<feFlood flood-opacity="0" result="BackgroundImageFix"/>
<feColorMatrix in="SourceAlpha" type="matrix" values="0 0 0 0 0 0 0 0 0 0 0 0 0 0 0 0 0 0 127 0" result="hardAlpha"/>
<feOffset/>
<feGaussianBlur stdDeviation="2.75"/>
<feComposite in2="hardAlpha" operator="out"/>
<feColorMatrix type="matrix" values="0 0 0 0 1 0 0 0 0 1 0 0 0 0 1 0 0 0 0.6 0"/>
<feBlend mode="normal" in2="BackgroundImageFix" result="effect1_dropShadow_17_83"/>
<feBlend mode="normal" in="SourceGraphic" in2="effect1_dropShadow_17_83" result="shape"/>
</filter>
<filter id="filter5_d_17_83" x="492.173" y="338.5" width="22.3271" height="178.562" filterUnits="userSpaceOnUse" color-interpolation-filters="sRGB">
<feFlood flood-opacity="0" result="BackgroundImageFix"/>
<feColorMatrix in="SourceAlpha" type="matrix" values="0 0 0 0 0 0 0 0 0 0 0 0 0 0 0 0 0 0 127 0" result="hardAlpha"/>
<feOffset/>
<feGaussianBlur stdDeviation="2.75"/>
<feComposite in2="hardAlpha" operator="out"/>
<feColorMatrix type="matrix" values="0 0 0 0 1 0 0 0 0 1 0 0 0 0 1 0 0 0 0.6 0"/>
<feBlend mode="normal" in2="BackgroundImageFix" result="effect1_dropShadow_17_83"/>
<feBlend mode="normal" in="SourceGraphic" in2="effect1_dropShadow_17_83" result="shape"/>
</filter>
<filter id="filter6_d_17_83" x="523.5" y="344.822" width="102.735" height="313.678" filterUnits="userSpaceOnUse" color-interpolation-filters="sRGB">
<feFlood flood-opacity="0" result="BackgroundImageFix"/>
<feColorMatrix in="SourceAlpha" type="matrix" values="0 0 0 0 0 0 0 0 0 0 0 0 0 0 0 0 0 0 127 0" result="hardAlpha"/>
<feOffset/>
<feGaussianBlur stdDeviation="2.75"/>
<feComposite in2="hardAlpha" operator="out"/>
<feColorMatrix type="matrix" values="0 0 0 0 1 0 0 0 0 1 0 0 0 0 1 0 0 0 0.6 0"/>
<feBlend mode="normal" in2="BackgroundImageFix" result="effect1_dropShadow_17_83"/>
<feBlend mode="normal" in="SourceGraphic" in2="effect1_dropShadow_17_83" result="shape"/>
</filter>
<filter id="filter7_d_17_83" x="552" y="502.786" width="67.7002" height="173.214" filterUnits="userSpaceOnUse" color-interpolation-filters="sRGB">
<feFlood flood-opacity="0" result="BackgroundImageFix"/>
<feColorMatrix in="SourceAlpha" type="matrix" values="0 0 0 0 0 0 0 0 0 0 0 0 0 0 0 0 0 0 127 0" result="hardAlpha"/>
<feOffset/>
<feGaussianBlur stdDeviation="2.75"/>
<feComposite in2="hardAlpha" operator="out"/>
<feColorMatrix type="matrix" values="0 0 0 0 1 0 0 0 0 1 0 0 0 0 1 0 0 0 0.6 0"/>
<feBlend mode="normal" in2="BackgroundImageFix" result="effect1_dropShadow_17_83"/>
<feBlend mode="normal" in="SourceGraphic" in2="effect1_dropShadow_17_83" result="shape"/>
</filter>
<filter id="filter8_d_17_83" x="579.5" y="531.5" width="13" height="159" filterUnits="userSpaceOnUse" color-interpolation-filters="sRGB">
<feFlood flood-opacity="0" result="BackgroundImageFix"/>
<feColorMatrix in="SourceAlpha" type="matrix" values="0 0 0 0 0 0 0 0 0 0 0 0 0 0 0 0 0 0 127 0" result="hardAlpha"/>
<feOffset/>
<feGaussianBlur stdDeviation="2.75"/>
<feComposite in2="hardAlpha" operator="out"/>
<feColorMatrix type="matrix" values="0 0 0 0 1 0 0 0 0 1 0 0 0 0 1 0 0 0 0.6 0"/>
<feBlend mode="normal" in2="BackgroundImageFix" result="effect1_dropShadow_17_83"/>
<feBlend mode="normal" in="SourceGraphic" in2="effect1_dropShadow_17_83" result="shape"/>
</filter>
<filter id="filter9_d_17_83" x="604.5" y="557.5" width="13" height="161.5" filterUnits="userSpaceOnUse" color-interpolation-filters="sRGB">
<feFlood flood-opacity="0" result="BackgroundImageFix"/>
<feColorMatrix in="SourceAlpha" type="matrix" values="0 0 0 0 0 0 0 0 0 0 0 0 0 0 0 0 0 0 127 0" result="hardAlpha"/>
<feOffset/>
<feGaussianBlur stdDeviation="2.75"/>
<feComposite in2="hardAlpha" operator="out"/>
<feColorMatrix type="matrix" values="0 0 0 0 1 0 0 0 0 1 0 0 0 0 1 0 0 0 0.6 0"/>
<feBlend mode="normal" in2="BackgroundImageFix" result="effect1_dropShadow_17_83"/>
<feBlend mode="normal" in="SourceGraphic" in2="effect1_dropShadow_17_83" result="shape"/>
</filter>
<filter id="filter10_d_17_83" x="434" y="378" width="36" height="36" filterUnits="userSpaceOnUse" color-interpolation-filters="sRGB">
<feFlood flood-opacity="0" result="BackgroundImageFix"/>
<feColorMatrix in="SourceAlpha" type="matrix" values="0 0 0 0 0 0 0 0 0 0 0 0 0 0 0 0 0 0 127 0" result="hardAlpha"/>
<feOffset/>
<feGaussianBlur stdDeviation="5"/>
<feComposite in2="hardAlpha" operator="out"/>
<feColorMatrix type="matrix" values="0 0 0 0 1 0 0 0 0 1 0 0 0 0 1 0 0 0 1 0"/>
<feBlend mode="normal" in2="BackgroundImageFix" result="effect1_dropShadow_17_83"/>
<feBlend mode="normal" in="SourceGraphic" in2="effect1_dropShadow_17_83" result="shape"/>
</filter>
<filter id="filter11_d_17_83" x="418" y="262" width="36" height="36" filterUnits="userSpaceOnUse" color-interpolation-filters="sRGB">
<feFlood flood-opacity="0" result="BackgroundImageFix"/>
<feColorMatrix in="SourceAlpha" type="matrix" values="0 0 0 0 0 0 0 0 0 0 0 0 0 0 0 0 0 0 127 0" result="hardAlpha"/>
<feOffset/>
<feGaussianBlur stdDeviation="5"/>
<feComposite in2="hardAlpha" operator="out"/>
<feColorMatrix type="matrix" values="0 0 0 0 1 0 0 0 0 1 0 0 0 0 1 0 0 0 1 0"/>
<feBlend mode="normal" in2="BackgroundImageFix" result="effect1_dropShadow_17_83"/>
<feBlend mode="normal" in="SourceGraphic" in2="effect1_dropShadow_17_83" result="shape"/>
</filter>
<filter id="filter12_d_17_83" x="519" y="442" width="36" height="36" filterUnits="userSpaceOnUse" color-interpolation-filters="sRGB">
<feFlood flood-opacity="0" result="BackgroundImageFix"/>
<feColorMatrix in="SourceAlpha" type="matrix" values="0 0 0 0 0 0 0 0 0 0 0 0 0 0 0 0 0 0 127 0" result="hardAlpha"/>
<feOffset/>
<feGaussianBlur stdDeviation="5"/>
<feComposite in2="hardAlpha" operator="out"/>
<feColorMatrix type="matrix" values="0 0 0 0 1 0 0 0 0 1 0 0 0 0 1 0 0 0 1 0"/>
<feBlend mode="normal" in2="BackgroundImageFix" result="effect1_dropShadow_17_83"/>
<feBlend mode="normal" in="SourceGraphic" in2="effect1_dropShadow_17_83" result="shape"/>
</filter>
<filter id="filter13_d_17_83" x="490" y="326" width="36" height="36" filterUnits="userSpaceOnUse" color-interpolation-filters="sRGB">
<feFlood flood-opacity="0" result="BackgroundImageFix"/>
<feColorMatrix in="SourceAlpha" type="matrix" values="0 0 0 0 0 0 0 0 0 0 0 0 0 0 0 0 0 0 127 0" result="hardAlpha"/>
<feOffset/>
<feGaussianBlur stdDeviation="5"/>
<feComposite in2="hardAlpha" operator="out"/>
<feColorMatrix type="matrix" values="0 0 0 0 1 0 0 0 0 1 0 0 0 0 1 0 0 0 1 0"/>
<feBlend mode="normal" in2="BackgroundImageFix" result="effect1_dropShadow_17_83"/>
<feBlend mode="normal" in="SourceGraphic" in2="effect1_dropShadow_17_83" result="shape"/>
</filter>
<filter id="filter14_d_17_83" x="541" y="194" width="36" height="36" filterUnits="userSpaceOnUse" color-interpolation-filters="sRGB">
<feFlood flood-opacity="0" result="BackgroundImageFix"/>
<feColorMatrix in="SourceAlpha" type="matrix" values="0 0 0 0 0 0 0 0 0 0 0 0 0 0 0 0 0 0 127 0" result="hardAlpha"/>
<feOffset/>
<feGaussianBlur stdDeviation="5"/>
<feComposite in2="hardAlpha" operator="out"/>
<feColorMatrix type="matrix" values="0 0 0 0 1 0 0 0 0 1 0 0 0 0 1 0 0 0 1 0"/>
<feBlend mode="normal" in2="BackgroundImageFix" result="effect1_dropShadow_17_83"/>
<feBlend mode="normal" in="SourceGraphic" in2="effect1_dropShadow_17_83" result="shape"/>
</filter>
<filter id="filter15_d_17_83" x="568" y="667" width="36" height="36" filterUnits="userSpaceOnUse" color-interpolation-filters="sRGB">
<feFlood flood-opacity="0" result="BackgroundImageFix"/>
<feColorMatrix in="SourceAlpha" type="matrix" values="0 0 0 0 0 0 0 0 0 0 0 0 0 0 0 0 0 0 127 0" result="hardAlpha"/>
<feOffset/>
<feGaussianBlur stdDeviation="5"/>
<feComposite in2="hardAlpha" operator="out"/>
<feColorMatrix type="matrix" values="0 0 0 0 1 0 0 0 0 1 0 0 0 0 1 0 0 0 1 0"/>
<feBlend mode="normal" in2="BackgroundImageFix" result="effect1_dropShadow_17_83"/>
<feBlend mode="normal" in="SourceGraphic" in2="effect1_dropShadow_17_83" result="shape"/>
</filter>
<filter id="filter16_d_17_83" x="549" y="508" width="36" height="36" filterUnits="userSpaceOnUse" color-interpolation-filters="sRGB">
<feFlood flood-opacity="0" result="BackgroundImageFix"/>
<feColorMatrix in="SourceAlpha" type="matrix" values="0 0 0 0 0 0 0 0 0 0 0 0 0 0 0 0 0 0 127 0" result="hardAlpha"/>
<feOffset/>
<feGaussianBlur stdDeviation="5"/>
<feComposite in2="hardAlpha" operator="out"/>
<feColorMatrix type="matrix" values="0 0 0 0 1 0 0 0 0 1 0 0 0 0 1 0 0 0 1 0"/>
<feBlend mode="normal" in2="BackgroundImageFix" result="effect1_dropShadow_17_83"/>
<feBlend mode="normal" in="SourceGraphic" in2="effect1_dropShadow_17_83" result="shape"/>
</filter>
<filter id="filter17_d_17_83" x="252" y="499" width="36" height="36" filterUnits="userSpaceOnUse" color-interpolation-filters="sRGB">
<feFlood flood-opacity="0" result="BackgroundImageFix"/>
<feColorMatrix in="SourceAlpha" type="matrix" values="0 0 0 0 0 0 0 0 0 0 0 0 0 0 0 0 0 0 127 0" result="hardAlpha"/>
<feOffset/>
<feGaussianBlur stdDeviation="5"/>
<feComposite in2="hardAlpha" operator="out"/>
<feColorMatrix type="matrix" values="0 0 0 0 1 0 0 0 0 1 0 0 0 0 1 0 0 0 1 0"/>
<feBlend mode="normal" in2="BackgroundImageFix" result="effect1_dropShadow_17_83"/>
<feBlend mode="normal" in="SourceGraphic" in2="effect1_dropShadow_17_83" result="shape"/>
</filter>
<filter id="filter18_d_17_83" x="343" y="431" width="36" height="36" filterUnits="userSpaceOnUse" color-interpolation-filters="sRGB">
<feFlood flood-opacity="0" result="BackgroundImageFix"/>
<feColorMatrix in="SourceAlpha" type="matrix" values="0 0 0 0 0 0 0 0 0 0 0 0 0 0 0 0 0 0 127 0" result="hardAlpha"/>
<feOffset/>
<feGaussianBlur stdDeviation="5"/>
<feComposite in2="hardAlpha" operator="out"/>
<feColorMatrix type="matrix" values="0 0 0 0 1 0 0 0 0 1 0 0 0 0 1 0 0 0 1 0"/>
<feBlend mode="normal" in2="BackgroundImageFix" result="effect1_dropShadow_17_83"/>
<feBlend mode="normal" in="SourceGraphic" in2="effect1_dropShadow_17_83" result="shape"/>
</filter>
<filter id="filter19_d_17_83" x="304" y="555" width="36" height="36" filterUnits="userSpaceOnUse" color-interpolation-filters="sRGB">
<feFlood flood-opacity="0" result="BackgroundImageFix"/>
<feColorMatrix in="SourceAlpha" type="matrix" values="0 0 0 0 0 0 0 0 0 0 0 0 0 0 0 0 0 0 127 0" result="hardAlpha"/>
<feOffset/>
<feGaussianBlur stdDeviation="5"/>
<feComposite in2="hardAlpha" operator="out"/>
<feColorMatrix type="matrix" values="0 0 0 0 1 0 0 0 0 1 0 0 0 0 1 0 0 0 1 0"/>
<feBlend mode="normal" in2="BackgroundImageFix" result="effect1_dropShadow_17_83"/>
<feBlend mode="normal" in="SourceGraphic" in2="effect1_dropShadow_17_83" result="shape"/>
</filter>
</defs>
</svg>
