<svg width="736" height="1076" viewBox="0 0 736 1076" fill="none" xmlns="http://www.w3.org/2000/svg">
<path d="M687.171 104L694.152 110.981L658.981 146.152L652 139.171L687.171 104Z" fill="white"/>
<path d="M702.562 314.609L709.543 321.59L667.981 363.152L661 356.171L702.562 314.609Z" fill="white"/>
<mask id="mask0_15_6" style="mask-type:alpha" maskUnits="userSpaceOnUse" x="54" y="138" width="628" height="628">
<path d="M368 396.012L545.021 138H682V765.109L544.3 642.391V376.159L368.5 630.498L192.7 376.159V642.391L54 766V138H190.979L368 396.012Z" fill="#D9D9D9"/>
</mask>
<g mask="url(#mask0_15_6)">
<path d="M53.5 176L289 515L369 397L192 139L53.5 130V176Z" fill="white"/>
<path d="M54 768.5V176.5L194 378L194.5 643L54 768.5Z" fill="white"/>
<path d="M284.933 517.995L565.069 108.567L705.051 106.379L715.507 775.297L470.537 779.126L377.735 648.561L284.933 517.995Z" fill="white"/>
</g>
<g filter="url(#filter0_d_15_6)">
<path d="M442.247 327.338L524.077 244.728V212.689L561 175.139V138H563V175.959L562.713 176.25L526.077 213.508V245.552L444.247 328.161V390.751L334.975 497.891V506.373L322.736 519.677L321.264 518.323L332.975 505.593V497.052L333.275 496.758L442.247 389.911V327.338Z" fill="white"/>
</g>
<g filter="url(#filter1_d_15_6)">
<path d="M604.5 137.5V181.391L465.5 332.39V397.402L390.5 475.402V495.923L355 530.422V567H353V529.577L388.5 495.077V474.598L463.5 396.597V331.609L602.5 180.609V137.5H604.5Z" fill="white"/>
</g>
<g filter="url(#filter2_d_15_6)">
<path d="M634 138V191.912L485 341.912V403.371L420 478.87V505.954L376.5 543.954V573H374.5V543.046L418 505.045V478.129L483 402.629V341.088L632 191.088V138H634Z" fill="white"/>
</g>
<g filter="url(#filter3_d_15_6)">
<path d="M659.5 138V201.417L507 352.416V395.5H505V351.583L657.5 200.583V138H659.5Z" fill="white"/>
</g>
<g filter="url(#filter4_d_15_6)">
<path d="M682 296.5V298.5H643.698L592 349.419V457.5H590V348.581L642.878 296.5H682Z" fill="white"/>
</g>
<g filter="url(#filter5_d_15_6)">
<path d="M563 344V497.308L562.827 497.562L553.327 511.562L551.673 510.438L561 496.692V344H563Z" fill="white"/>
</g>
<g filter="url(#filter6_d_15_6)">
<path d="M674.735 351.678L638.351 391.141V510.402L638.07 510.693L585 565.663V653H583V564.856L583.28 564.565L636.351 509.594V390.359L636.615 390.071L673.265 350.322L674.735 351.678Z" fill="white"/>
</g>
<g filter="url(#filter7_d_15_6)">
<path d="M668.2 509.714L613.5 563.419V670.5H611.5V562.58L666.8 508.286L668.2 509.714Z" fill="white"/>
</g>
<g filter="url(#filter8_d_15_6)">
<path d="M641 537V685H639V537H641Z" fill="white"/>
</g>
<g filter="url(#filter9_d_15_6)">
<path d="M666 563V713.5H664V563H666Z" fill="white"/>
</g>
<path d="M557 110H567V138H557V110Z" fill="white"/>
<path d="M599 38H609V138H599V38Z" fill="white"/>
<path d="M628 93H638V138H628V93Z" fill="white"/>
<path d="M659.91 61.0901L666.891 68.0711L634.981 99.981L628 93L659.91 61.0901Z" fill="white"/>
<path d="M571 90.5C571 85.2533 566.747 81 561.5 81C556.253 81 552 85.2533 552 90.5C552 95.7467 556.253 100 561.5 100V111C550.178 111 541 101.822 541 90.5C541 79.1782 550.178 70 561.5 70C572.822 70 582 79.1782 582 90.5C582 101.822 572.822 111 561.5 111V100C566.747 100 571 95.7467 571 90.5Z" fill="white"/>
<path d="M613 20.5C613 15.2533 608.747 11 603.5 11C598.253 11 594 15.2533 594 20.5C594 25.7467 598.253 30 603.5 30V41C592.178 41 583 31.8218 583 20.5C583 9.17816 592.178 0 603.5 0C614.822 0 624 9.17816 624 20.5C624 31.8218 614.822 41 603.5 41V30C608.747 30 613 25.7467 613 20.5Z" fill="white"/>
<path d="M684 53.5C684 48.2533 679.747 44 674.5 44C669.253 44 665 48.2533 665 53.5C665 58.7467 669.253 63 674.5 63V74C663.178 74 654 64.8218 654 53.5C654 42.1782 663.178 33 674.5 33C685.822 33 695 42.1782 695 53.5C695 64.8218 685.822 74 674.5 74V63C679.747 63 684 58.7467 684 53.5Z" fill="white"/>
<path d="M712 95.5C712 90.2533 707.747 86 702.5 86C697.253 86 693 90.2533 693 95.5C693 100.747 697.253 105 702.5 105V116C691.178 116 682 106.822 682 95.5C682 84.1782 691.178 75 702.5 75C713.822 75 723 84.1782 723 95.5C723 106.822 713.822 116 702.5 116V105C707.747 105 712 100.747 712 95.5Z" fill="white"/>
<path d="M725 308.5C725 303.253 720.747 299 715.5 299C710.253 299 706 303.253 706 308.5C706 313.747 710.253 318 715.5 318V329C704.178 329 695 319.822 695 308.5C695 297.178 704.178 288 715.5 288C726.822 288 736 297.178 736 308.5C736 319.822 726.822 329 715.5 329V318C720.747 318 725 313.747 725 308.5Z" fill="white"/>
<g filter="url(#filter10_d_15_6)">
<path d="M506 388L506.16 392.948L506.836 388.044L506.478 392.982L507.663 388.175L506.791 393.048L508.472 388.392L507.095 393.147L509.254 388.692L507.387 393.277L510 389.072L507.664 393.437L510.702 389.528L507.923 393.625L511.353 390.055L508.161 393.839L511.945 390.647L508.375 394.077L512.472 391.298L508.563 394.336L512.928 392L508.723 394.613L513.308 392.746L508.853 394.905L513.608 393.528L508.952 395.209L513.825 394.337L509.018 395.522L513.956 395.164L509.052 395.84L514 396L509.052 396.16L513.956 396.836L509.018 396.478L513.825 397.663L508.952 396.791L513.608 398.472L508.853 397.095L513.308 399.254L508.723 397.387L512.928 400L508.563 397.664L512.472 400.702L508.375 397.923L511.945 401.353L508.161 398.161L511.353 401.945L507.923 398.375L510.702 402.472L507.664 398.563L510 402.928L507.387 398.723L509.254 403.308L507.095 398.853L508.472 403.608L506.791 398.952L507.663 403.825L506.478 399.018L506.836 403.956L506.16 399.052L506 404L505.84 399.052L505.164 403.956L505.522 399.018L504.337 403.825L505.209 398.952L503.528 403.608L504.905 398.853L502.746 403.308L504.613 398.723L502 402.928L504.336 398.563L501.298 402.472L504.077 398.375L500.647 401.945L503.839 398.161L500.055 401.353L503.625 397.923L499.528 400.702L503.437 397.664L499.072 400L503.277 397.387L498.692 399.254L503.147 397.095L498.392 398.472L503.048 396.791L498.175 397.663L502.982 396.478L498.044 396.836L502.948 396.16L498 396L502.948 395.84L498.044 395.164L502.982 395.522L498.175 394.337L503.048 395.209L498.392 393.528L503.147 394.905L498.692 392.746L503.277 394.613L499.072 392L503.437 394.336L499.528 391.298L503.625 394.077L500.055 390.647L503.839 393.839L500.647 390.055L504.077 393.625L501.298 389.528L504.336 393.437L502 389.072L504.613 393.277L502.746 388.692L504.905 393.147L503.528 388.392L505.209 393.048L504.337 388.175L505.522 392.982L505.164 388.044L505.84 392.948L506 388Z" fill="white"/>
</g>
<g filter="url(#filter11_d_15_6)">
<path d="M490 272L490.16 276.948L490.836 272.044L490.478 276.982L491.663 272.175L490.791 277.048L492.472 272.392L491.095 277.147L493.254 272.692L491.387 277.277L494 273.072L491.664 277.437L494.702 273.528L491.923 277.625L495.353 274.055L492.161 277.839L495.945 274.647L492.375 278.077L496.472 275.298L492.563 278.336L496.928 276L492.723 278.613L497.308 276.746L492.853 278.905L497.608 277.528L492.952 279.209L497.825 278.337L493.018 279.522L497.956 279.164L493.052 279.84L498 280L493.052 280.16L497.956 280.836L493.018 280.478L497.825 281.663L492.952 280.791L497.608 282.472L492.853 281.095L497.308 283.254L492.723 281.387L496.928 284L492.563 281.664L496.472 284.702L492.375 281.923L495.945 285.353L492.161 282.161L495.353 285.945L491.923 282.375L494.702 286.472L491.664 282.563L494 286.928L491.387 282.723L493.254 287.308L491.095 282.853L492.472 287.608L490.791 282.952L491.663 287.825L490.478 283.018L490.836 287.956L490.16 283.052L490 288L489.84 283.052L489.164 287.956L489.522 283.018L488.337 287.825L489.209 282.952L487.528 287.608L488.905 282.853L486.746 287.308L488.613 282.723L486 286.928L488.336 282.563L485.298 286.472L488.077 282.375L484.647 285.945L487.839 282.161L484.055 285.353L487.625 281.923L483.528 284.702L487.437 281.664L483.072 284L487.277 281.387L482.692 283.254L487.147 281.095L482.392 282.472L487.048 280.791L482.175 281.663L486.982 280.478L482.044 280.836L486.948 280.16L482 280L486.948 279.84L482.044 279.164L486.982 279.522L482.175 278.337L487.048 279.209L482.392 277.528L487.147 278.905L482.692 276.746L487.277 278.613L483.072 276L487.437 278.336L483.528 275.298L487.625 278.077L484.055 274.647L487.839 277.839L484.647 274.055L488.077 277.625L485.298 273.528L488.336 277.437L486 273.072L488.613 277.277L486.746 272.692L488.905 277.147L487.528 272.392L489.209 277.048L488.337 272.175L489.522 276.982L489.164 272.044L489.84 276.948L490 272Z" fill="white"/>
</g>
<g filter="url(#filter12_d_15_6)">
<path d="M591 452L591.16 456.948L591.836 452.044L591.478 456.982L592.663 452.175L591.791 457.048L593.472 452.392L592.095 457.147L594.254 452.692L592.387 457.277L595 453.072L592.664 457.437L595.702 453.528L592.923 457.625L596.353 454.055L593.161 457.839L596.945 454.647L593.375 458.077L597.472 455.298L593.563 458.336L597.928 456L593.723 458.613L598.308 456.746L593.853 458.905L598.608 457.528L593.952 459.209L598.825 458.337L594.018 459.522L598.956 459.164L594.052 459.84L599 460L594.052 460.16L598.956 460.836L594.018 460.478L598.825 461.663L593.952 460.791L598.608 462.472L593.853 461.095L598.308 463.254L593.723 461.387L597.928 464L593.563 461.664L597.472 464.702L593.375 461.923L596.945 465.353L593.161 462.161L596.353 465.945L592.923 462.375L595.702 466.472L592.664 462.563L595 466.928L592.387 462.723L594.254 467.308L592.095 462.853L593.472 467.608L591.791 462.952L592.663 467.825L591.478 463.018L591.836 467.956L591.16 463.052L591 468L590.84 463.052L590.164 467.956L590.522 463.018L589.337 467.825L590.209 462.952L588.528 467.608L589.905 462.853L587.746 467.308L589.613 462.723L587 466.928L589.336 462.563L586.298 466.472L589.077 462.375L585.647 465.945L588.839 462.161L585.055 465.353L588.625 461.923L584.528 464.702L588.437 461.664L584.072 464L588.277 461.387L583.692 463.254L588.147 461.095L583.392 462.472L588.048 460.791L583.175 461.663L587.982 460.478L583.044 460.836L587.948 460.16L583 460L587.948 459.84L583.044 459.164L587.982 459.522L583.175 458.337L588.048 459.209L583.392 457.528L588.147 458.905L583.692 456.746L588.277 458.613L584.072 456L588.437 458.336L584.528 455.298L588.625 458.077L585.055 454.647L588.839 457.839L585.647 454.055L589.077 457.625L586.298 453.528L589.336 457.437L587 453.072L589.613 457.277L587.746 452.692L589.905 457.147L588.528 452.392L590.209 457.048L589.337 452.175L590.522 456.982L590.164 452.044L590.84 456.948L591 452Z" fill="white"/>
</g>
<g filter="url(#filter13_d_15_6)">
<path d="M562 336L562.16 340.948L562.836 336.044L562.478 340.982L563.663 336.175L562.791 341.048L564.472 336.392L563.095 341.147L565.254 336.692L563.387 341.277L566 337.072L563.664 341.437L566.702 337.528L563.923 341.625L567.353 338.055L564.161 341.839L567.945 338.647L564.375 342.077L568.472 339.298L564.563 342.336L568.928 340L564.723 342.613L569.308 340.746L564.853 342.905L569.608 341.528L564.952 343.209L569.825 342.337L565.018 343.522L569.956 343.164L565.052 343.84L570 344L565.052 344.16L569.956 344.836L565.018 344.478L569.825 345.663L564.952 344.791L569.608 346.472L564.853 345.095L569.308 347.254L564.723 345.387L568.928 348L564.563 345.664L568.472 348.702L564.375 345.923L567.945 349.353L564.161 346.161L567.353 349.945L563.923 346.375L566.702 350.472L563.664 346.563L566 350.928L563.387 346.723L565.254 351.308L563.095 346.853L564.472 351.608L562.791 346.952L563.663 351.825L562.478 347.018L562.836 351.956L562.16 347.052L562 352L561.84 347.052L561.164 351.956L561.522 347.018L560.337 351.825L561.209 346.952L559.528 351.608L560.905 346.853L558.746 351.308L560.613 346.723L558 350.928L560.336 346.563L557.298 350.472L560.077 346.375L556.647 349.945L559.839 346.161L556.055 349.353L559.625 345.923L555.528 348.702L559.437 345.664L555.072 348L559.277 345.387L554.692 347.254L559.147 345.095L554.392 346.472L559.048 344.791L554.175 345.663L558.982 344.478L554.044 344.836L558.948 344.16L554 344L558.948 343.84L554.044 343.164L558.982 343.522L554.175 342.337L559.048 343.209L554.392 341.528L559.147 342.905L554.692 340.746L559.277 342.613L555.072 340L559.437 342.336L555.528 339.298L559.625 342.077L556.055 338.647L559.839 341.839L556.647 338.055L560.077 341.625L557.298 337.528L560.336 341.437L558 337.072L560.613 341.277L558.746 336.692L560.905 341.147L559.528 336.392L561.209 341.048L560.337 336.175L561.522 340.982L561.164 336.044L561.84 340.948L562 336Z" fill="white"/>
</g>
<g filter="url(#filter14_d_15_6)">
<path d="M613 204L613.16 208.948L613.836 204.044L613.478 208.982L614.663 204.175L613.791 209.048L615.472 204.392L614.095 209.147L616.254 204.692L614.387 209.277L617 205.072L614.664 209.437L617.702 205.528L614.923 209.625L618.353 206.055L615.161 209.839L618.945 206.647L615.375 210.077L619.472 207.298L615.563 210.336L619.928 208L615.723 210.613L620.308 208.746L615.853 210.905L620.608 209.528L615.952 211.209L620.825 210.337L616.018 211.522L620.956 211.164L616.052 211.84L621 212L616.052 212.16L620.956 212.836L616.018 212.478L620.825 213.663L615.952 212.791L620.608 214.472L615.853 213.095L620.308 215.254L615.723 213.387L619.928 216L615.563 213.664L619.472 216.702L615.375 213.923L618.945 217.353L615.161 214.161L618.353 217.945L614.923 214.375L617.702 218.472L614.664 214.563L617 218.928L614.387 214.723L616.254 219.308L614.095 214.853L615.472 219.608L613.791 214.952L614.663 219.825L613.478 215.018L613.836 219.956L613.16 215.052L613 220L612.84 215.052L612.164 219.956L612.522 215.018L611.337 219.825L612.209 214.952L610.528 219.608L611.905 214.853L609.746 219.308L611.613 214.723L609 218.928L611.336 214.563L608.298 218.472L611.077 214.375L607.647 217.945L610.839 214.161L607.055 217.353L610.625 213.923L606.528 216.702L610.437 213.664L606.072 216L610.277 213.387L605.692 215.254L610.147 213.095L605.392 214.472L610.048 212.791L605.175 213.663L609.982 212.478L605.044 212.836L609.948 212.16L605 212L609.948 211.84L605.044 211.164L609.982 211.522L605.175 210.337L610.048 211.209L605.392 209.528L610.147 210.905L605.692 208.746L610.277 210.613L606.072 208L610.437 210.336L606.528 207.298L610.625 210.077L607.055 206.647L610.839 209.839L607.647 206.055L611.077 209.625L608.298 205.528L611.336 209.437L609 205.072L611.613 209.277L609.746 204.692L611.905 209.147L610.528 204.392L612.209 209.048L611.337 204.175L612.522 208.982L612.164 204.044L612.84 208.948L613 204Z" fill="white"/>
</g>
<g filter="url(#filter15_d_15_6)">
<path d="M640 677L640.16 681.948L640.836 677.044L640.478 681.982L641.663 677.175L640.791 682.048L642.472 677.392L641.095 682.147L643.254 677.692L641.387 682.277L644 678.072L641.664 682.437L644.702 678.528L641.923 682.625L645.353 679.055L642.161 682.839L645.945 679.647L642.375 683.077L646.472 680.298L642.563 683.336L646.928 681L642.723 683.613L647.308 681.746L642.853 683.905L647.608 682.528L642.952 684.209L647.825 683.337L643.018 684.522L647.956 684.164L643.052 684.84L648 685L643.052 685.16L647.956 685.836L643.018 685.478L647.825 686.663L642.952 685.791L647.608 687.472L642.853 686.095L647.308 688.254L642.723 686.387L646.928 689L642.563 686.664L646.472 689.702L642.375 686.923L645.945 690.353L642.161 687.161L645.353 690.945L641.923 687.375L644.702 691.472L641.664 687.563L644 691.928L641.387 687.723L643.254 692.308L641.095 687.853L642.472 692.608L640.791 687.952L641.663 692.825L640.478 688.018L640.836 692.956L640.16 688.052L640 693L639.84 688.052L639.164 692.956L639.522 688.018L638.337 692.825L639.209 687.952L637.528 692.608L638.905 687.853L636.746 692.308L638.613 687.723L636 691.928L638.336 687.563L635.298 691.472L638.077 687.375L634.647 690.945L637.839 687.161L634.055 690.353L637.625 686.923L633.528 689.702L637.437 686.664L633.072 689L637.277 686.387L632.692 688.254L637.147 686.095L632.392 687.472L637.048 685.791L632.175 686.663L636.982 685.478L632.044 685.836L636.948 685.16L632 685L636.948 684.84L632.044 684.164L636.982 684.522L632.175 683.337L637.048 684.209L632.392 682.528L637.147 683.905L632.692 681.746L637.277 683.613L633.072 681L637.437 683.336L633.528 680.298L637.625 683.077L634.055 679.647L637.839 682.839L634.647 679.055L638.077 682.625L635.298 678.528L638.336 682.437L636 678.072L638.613 682.277L636.746 677.692L638.905 682.147L637.528 677.392L639.209 682.048L638.337 677.175L639.522 681.982L639.164 677.044L639.84 681.948L640 677Z" fill="white"/>
</g>
<g filter="url(#filter16_d_15_6)">
<path d="M621 518L621.16 522.948L621.836 518.044L621.478 522.982L622.663 518.175L621.791 523.048L623.472 518.392L622.095 523.147L624.254 518.692L622.387 523.277L625 519.072L622.664 523.437L625.702 519.528L622.923 523.625L626.353 520.055L623.161 523.839L626.945 520.647L623.375 524.077L627.472 521.298L623.563 524.336L627.928 522L623.723 524.613L628.308 522.746L623.853 524.905L628.608 523.528L623.952 525.209L628.825 524.337L624.018 525.522L628.956 525.164L624.052 525.84L629 526L624.052 526.16L628.956 526.836L624.018 526.478L628.825 527.663L623.952 526.791L628.608 528.472L623.853 527.095L628.308 529.254L623.723 527.387L627.928 530L623.563 527.664L627.472 530.702L623.375 527.923L626.945 531.353L623.161 528.161L626.353 531.945L622.923 528.375L625.702 532.472L622.664 528.563L625 532.928L622.387 528.723L624.254 533.308L622.095 528.853L623.472 533.608L621.791 528.952L622.663 533.825L621.478 529.018L621.836 533.956L621.16 529.052L621 534L620.84 529.052L620.164 533.956L620.522 529.018L619.337 533.825L620.209 528.952L618.528 533.608L619.905 528.853L617.746 533.308L619.613 528.723L617 532.928L619.336 528.563L616.298 532.472L619.077 528.375L615.647 531.945L618.839 528.161L615.055 531.353L618.625 527.923L614.528 530.702L618.437 527.664L614.072 530L618.277 527.387L613.692 529.254L618.147 527.095L613.392 528.472L618.048 526.791L613.175 527.663L617.982 526.478L613.044 526.836L617.948 526.16L613 526L617.948 525.84L613.044 525.164L617.982 525.522L613.175 524.337L618.048 525.209L613.392 523.528L618.147 524.905L613.692 522.746L618.277 524.613L614.072 522L618.437 524.336L614.528 521.298L618.625 524.077L615.055 520.647L618.839 523.839L615.647 520.055L619.077 523.625L616.298 519.528L619.336 523.437L617 519.072L619.613 523.277L617.746 518.692L619.905 523.147L618.528 518.392L620.209 523.048L619.337 518.175L620.522 522.982L620.164 518.044L620.84 522.948L621 518Z" fill="white"/>
</g>
<g filter="url(#filter17_d_15_6)">
<path d="M324 509L324.16 513.948L324.836 509.044L324.478 513.982L325.663 509.175L324.791 514.048L326.472 509.392L325.095 514.147L327.254 509.692L325.387 514.277L328 510.072L325.664 514.437L328.702 510.528L325.923 514.625L329.353 511.055L326.161 514.839L329.945 511.647L326.375 515.077L330.472 512.298L326.563 515.336L330.928 513L326.723 515.613L331.308 513.746L326.853 515.905L331.608 514.528L326.952 516.209L331.825 515.337L327.018 516.522L331.956 516.164L327.052 516.84L332 517L327.052 517.16L331.956 517.836L327.018 517.478L331.825 518.663L326.952 517.791L331.608 519.472L326.853 518.095L331.308 520.254L326.723 518.387L330.928 521L326.563 518.664L330.472 521.702L326.375 518.923L329.945 522.353L326.161 519.161L329.353 522.945L325.923 519.375L328.702 523.472L325.664 519.563L328 523.928L325.387 519.723L327.254 524.308L325.095 519.853L326.472 524.608L324.791 519.952L325.663 524.825L324.478 520.018L324.836 524.956L324.16 520.052L324 525L323.84 520.052L323.164 524.956L323.522 520.018L322.337 524.825L323.209 519.952L321.528 524.608L322.905 519.853L320.746 524.308L322.613 519.723L320 523.928L322.336 519.563L319.298 523.472L322.077 519.375L318.647 522.945L321.839 519.161L318.055 522.353L321.625 518.923L317.528 521.702L321.437 518.664L317.072 521L321.277 518.387L316.692 520.254L321.147 518.095L316.392 519.472L321.048 517.791L316.175 518.663L320.982 517.478L316.044 517.836L320.948 517.16L316 517L320.948 516.84L316.044 516.164L320.982 516.522L316.175 515.337L321.048 516.209L316.392 514.528L321.147 515.905L316.692 513.746L321.277 515.613L317.072 513L321.437 515.336L317.528 512.298L321.625 515.077L318.055 511.647L321.839 514.839L318.647 511.055L322.077 514.625L319.298 510.528L322.336 514.437L320 510.072L322.613 514.277L320.746 509.692L322.905 514.147L321.528 509.392L323.209 514.048L322.337 509.175L323.522 513.982L323.164 509.044L323.84 513.948L324 509Z" fill="white"/>
</g>
<g filter="url(#filter18_d_15_6)">
<path d="M415 441L415.16 445.948L415.836 441.044L415.478 445.982L416.663 441.175L415.791 446.048L417.472 441.392L416.095 446.147L418.254 441.692L416.387 446.277L419 442.072L416.664 446.437L419.702 442.528L416.923 446.625L420.353 443.055L417.161 446.839L420.945 443.647L417.375 447.077L421.472 444.298L417.563 447.336L421.928 445L417.723 447.613L422.308 445.746L417.853 447.905L422.608 446.528L417.952 448.209L422.825 447.337L418.018 448.522L422.956 448.164L418.052 448.84L423 449L418.052 449.16L422.956 449.836L418.018 449.478L422.825 450.663L417.952 449.791L422.608 451.472L417.853 450.095L422.308 452.254L417.723 450.387L421.928 453L417.563 450.664L421.472 453.702L417.375 450.923L420.945 454.353L417.161 451.161L420.353 454.945L416.923 451.375L419.702 455.472L416.664 451.563L419 455.928L416.387 451.723L418.254 456.308L416.095 451.853L417.472 456.608L415.791 451.952L416.663 456.825L415.478 452.018L415.836 456.956L415.16 452.052L415 457L414.84 452.052L414.164 456.956L414.522 452.018L413.337 456.825L414.209 451.952L412.528 456.608L413.905 451.853L411.746 456.308L413.613 451.723L411 455.928L413.336 451.563L410.298 455.472L413.077 451.375L409.647 454.945L412.839 451.161L409.055 454.353L412.625 450.923L408.528 453.702L412.437 450.664L408.072 453L412.277 450.387L407.692 452.254L412.147 450.095L407.392 451.472L412.048 449.791L407.175 450.663L411.982 449.478L407.044 449.836L411.948 449.16L407 449L411.948 448.84L407.044 448.164L411.982 448.522L407.175 447.337L412.048 448.209L407.392 446.528L412.147 447.905L407.692 445.746L412.277 447.613L408.072 445L412.437 447.336L408.528 444.298L412.625 447.077L409.055 443.647L412.839 446.839L409.647 443.055L413.077 446.625L410.298 442.528L413.336 446.437L411 442.072L413.613 446.277L411.746 441.692L413.905 446.147L412.528 441.392L414.209 446.048L413.337 441.175L414.522 445.982L414.164 441.044L414.84 445.948L415 441Z" fill="white"/>
</g>
<g filter="url(#filter19_d_15_6)">
<path d="M376 565L376.16 569.948L376.836 565.044L376.478 569.982L377.663 565.175L376.791 570.048L378.472 565.392L377.095 570.147L379.254 565.692L377.387 570.277L380 566.072L377.664 570.437L380.702 566.528L377.923 570.625L381.353 567.055L378.161 570.839L381.945 567.647L378.375 571.077L382.472 568.298L378.563 571.336L382.928 569L378.723 571.613L383.308 569.746L378.853 571.905L383.608 570.528L378.952 572.209L383.825 571.337L379.018 572.522L383.956 572.164L379.052 572.84L384 573L379.052 573.16L383.956 573.836L379.018 573.478L383.825 574.663L378.952 573.791L383.608 575.472L378.853 574.095L383.308 576.254L378.723 574.387L382.928 577L378.563 574.664L382.472 577.702L378.375 574.923L381.945 578.353L378.161 575.161L381.353 578.945L377.923 575.375L380.702 579.472L377.664 575.563L380 579.928L377.387 575.723L379.254 580.308L377.095 575.853L378.472 580.608L376.791 575.952L377.663 580.825L376.478 576.018L376.836 580.956L376.16 576.052L376 581L375.84 576.052L375.164 580.956L375.522 576.018L374.337 580.825L375.209 575.952L373.528 580.608L374.905 575.853L372.746 580.308L374.613 575.723L372 579.928L374.336 575.563L371.298 579.472L374.077 575.375L370.647 578.945L373.839 575.161L370.055 578.353L373.625 574.923L369.528 577.702L373.437 574.664L369.072 577L373.277 574.387L368.692 576.254L373.147 574.095L368.392 575.472L373.048 573.791L368.175 574.663L372.982 573.478L368.044 573.836L372.948 573.16L368 573L372.948 572.84L368.044 572.164L372.982 572.522L368.175 571.337L373.048 572.209L368.392 570.528L373.147 571.905L368.692 569.746L373.277 571.613L369.072 569L373.437 571.336L369.528 568.298L373.625 571.077L370.055 567.647L373.839 570.839L370.647 567.055L374.077 570.625L371.298 566.528L374.336 570.437L372 566.072L374.613 570.277L372.746 565.692L374.905 570.147L373.528 565.392L375.209 570.048L374.337 565.175L375.522 569.982L375.164 565.044L375.84 569.948L376 565Z" fill="white"/>
</g>
<path d="M68.1344 1017V874.44H84.1724L138.028 987.993L191.587 874.44H207.823V1016.9H191.092V913.149L142.681 1017H133.276L84.8654 913.149V1017H68.1344ZM281.916 1019.97C271.422 1019.97 262.248 1017.66 254.394 1013.04C246.606 1008.35 240.534 1001.85 236.178 993.537C231.822 985.155 229.644 975.387 229.644 964.233C229.644 952.551 231.789 942.453 236.079 933.939C240.369 925.359 246.342 918.759 253.998 914.139C261.72 909.453 270.762 907.11 281.124 907.11C291.882 907.11 301.023 909.585 308.547 914.535C316.137 919.485 321.813 926.547 325.575 935.721C329.403 944.895 331.053 955.818 330.525 968.49H312.705V962.154C312.507 949.02 309.834 939.219 304.686 932.751C299.538 926.217 291.882 922.95 281.718 922.95C270.828 922.95 262.545 926.448 256.869 933.444C251.193 940.44 248.355 950.472 248.355 963.54C248.355 976.146 251.193 985.914 256.869 992.844C262.545 999.774 270.63 1003.24 281.124 1003.24C288.186 1003.24 294.324 1001.62 299.538 998.388C304.752 995.154 308.844 990.501 311.814 984.429L328.743 990.27C324.585 999.708 318.315 1007.03 309.933 1012.25C301.617 1017.4 292.278 1019.97 281.916 1019.97ZM242.415 968.49V954.333H321.417V968.49H242.415ZM412.263 1017C405.927 1018.25 399.657 1018.75 393.453 1018.49C387.315 1018.29 381.837 1017.07 377.019 1014.82C372.201 1012.51 368.538 1008.95 366.03 1004.13C363.918 999.906 362.763 995.649 362.565 991.359C362.433 987.003 362.367 982.086 362.367 976.608V880.38H379.989V975.816C379.989 980.172 380.022 983.901 380.088 987.003C380.22 990.105 380.913 992.778 382.167 995.022C384.543 999.246 388.305 1001.72 393.453 1002.45C398.667 1003.17 404.937 1002.97 412.263 1001.85V1017ZM340.686 924.633V910.08H412.263V924.633H340.686ZM464.363 1019.97C456.377 1019.97 449.678 1018.52 444.266 1015.61C438.92 1012.64 434.861 1008.75 432.089 1003.93C429.383 999.114 428.03 993.834 428.03 988.092C428.03 982.482 429.086 977.631 431.198 973.539C433.376 969.381 436.412 965.949 440.306 963.243C444.2 960.471 448.853 958.293 454.265 956.709C459.347 955.323 465.023 954.135 471.293 953.145C477.629 952.089 484.031 951.132 490.499 950.274C496.967 949.416 503.006 948.591 508.616 947.799L502.28 951.462C502.478 941.958 500.564 934.929 496.538 930.375C492.578 925.821 485.714 923.544 475.946 923.544C469.478 923.544 463.802 925.029 458.918 927.999C454.1 930.903 450.701 935.655 448.721 942.255L431.99 937.206C434.564 927.834 439.547 920.475 446.939 915.129C454.331 909.783 464.066 907.11 476.144 907.11C485.846 907.11 494.162 908.859 501.092 912.357C508.088 915.789 513.104 921.003 516.14 927.999C517.658 931.299 518.615 934.896 519.011 938.79C519.407 942.618 519.605 946.644 519.605 950.868V1017H503.963V991.359L507.626 993.735C503.6 1002.38 497.957 1008.91 490.697 1013.34C483.503 1017.76 474.725 1019.97 464.363 1019.97ZM467.036 1005.22C473.372 1005.22 478.85 1004.1 483.47 1001.85C488.156 999.543 491.918 996.54 494.756 992.844C497.594 989.082 499.442 984.99 500.3 980.568C501.29 977.268 501.818 973.605 501.884 969.579C502.016 965.487 502.082 962.352 502.082 960.174L508.22 962.847C502.478 963.639 496.835 964.398 491.291 965.124C485.747 965.85 480.5 966.642 475.55 967.5C470.6 968.292 466.145 969.249 462.185 970.371C459.281 971.295 456.542 972.483 453.968 973.935C451.46 975.387 449.414 977.268 447.83 979.578C446.312 981.822 445.553 984.627 445.553 987.993C445.553 990.897 446.279 993.669 447.731 996.309C449.249 998.949 451.559 1001.09 454.661 1002.74C457.829 1004.39 461.954 1005.22 467.036 1005.22ZM545.345 1017V874.44H628.505V892.062H562.967V936.909H616.625V954.531H562.967V1017H545.345ZM648.259 891.171V872.955H665.881V891.171H648.259ZM648.259 1017V910.08H665.881V1017H648.259Z" fill="white"/>
<defs>
<filter id="filter0_d_15_6" x="315.764" y="132.5" width="252.736" height="392.677" filterUnits="userSpaceOnUse" color-interpolation-filters="sRGB">
<feFlood flood-opacity="0" result="BackgroundImageFix"/>
<feColorMatrix in="SourceAlpha" type="matrix" values="0 0 0 0 0 0 0 0 0 0 0 0 0 0 0 0 0 0 127 0" result="hardAlpha"/>
<feOffset/>
<feGaussianBlur stdDeviation="2.75"/>
<feComposite in2="hardAlpha" operator="out"/>
<feColorMatrix type="matrix" values="0 0 0 0 1 0 0 0 0 1 0 0 0 0 1 0 0 0 0.6 0"/>
<feBlend mode="normal" in2="BackgroundImageFix" result="effect1_dropShadow_15_6"/>
<feBlend mode="normal" in="SourceGraphic" in2="effect1_dropShadow_15_6" result="shape"/>
</filter>
<filter id="filter1_d_15_6" x="347.5" y="132" width="262.5" height="440.5" filterUnits="userSpaceOnUse" color-interpolation-filters="sRGB">
<feFlood flood-opacity="0" result="BackgroundImageFix"/>
<feColorMatrix in="SourceAlpha" type="matrix" values="0 0 0 0 0 0 0 0 0 0 0 0 0 0 0 0 0 0 127 0" result="hardAlpha"/>
<feOffset/>
<feGaussianBlur stdDeviation="2.75"/>
<feComposite in2="hardAlpha" operator="out"/>
<feColorMatrix type="matrix" values="0 0 0 0 1 0 0 0 0 1 0 0 0 0 1 0 0 0 0.6 0"/>
<feBlend mode="normal" in2="BackgroundImageFix" result="effect1_dropShadow_15_6"/>
<feBlend mode="normal" in="SourceGraphic" in2="effect1_dropShadow_15_6" result="shape"/>
</filter>
<filter id="filter2_d_15_6" x="369" y="132.5" width="270.5" height="446" filterUnits="userSpaceOnUse" color-interpolation-filters="sRGB">
<feFlood flood-opacity="0" result="BackgroundImageFix"/>
<feColorMatrix in="SourceAlpha" type="matrix" values="0 0 0 0 0 0 0 0 0 0 0 0 0 0 0 0 0 0 127 0" result="hardAlpha"/>
<feOffset/>
<feGaussianBlur stdDeviation="2.75"/>
<feComposite in2="hardAlpha" operator="out"/>
<feColorMatrix type="matrix" values="0 0 0 0 1 0 0 0 0 1 0 0 0 0 1 0 0 0 0.6 0"/>
<feBlend mode="normal" in2="BackgroundImageFix" result="effect1_dropShadow_15_6"/>
<feBlend mode="normal" in="SourceGraphic" in2="effect1_dropShadow_15_6" result="shape"/>
</filter>
<filter id="filter3_d_15_6" x="499.5" y="132.5" width="165.5" height="268.5" filterUnits="userSpaceOnUse" color-interpolation-filters="sRGB">
<feFlood flood-opacity="0" result="BackgroundImageFix"/>
<feColorMatrix in="SourceAlpha" type="matrix" values="0 0 0 0 0 0 0 0 0 0 0 0 0 0 0 0 0 0 127 0" result="hardAlpha"/>
<feOffset/>
<feGaussianBlur stdDeviation="2.75"/>
<feComposite in2="hardAlpha" operator="out"/>
<feColorMatrix type="matrix" values="0 0 0 0 1 0 0 0 0 1 0 0 0 0 1 0 0 0 0.6 0"/>
<feBlend mode="normal" in2="BackgroundImageFix" result="effect1_dropShadow_15_6"/>
<feBlend mode="normal" in="SourceGraphic" in2="effect1_dropShadow_15_6" result="shape"/>
</filter>
<filter id="filter4_d_15_6" x="584.5" y="291" width="103" height="172" filterUnits="userSpaceOnUse" color-interpolation-filters="sRGB">
<feFlood flood-opacity="0" result="BackgroundImageFix"/>
<feColorMatrix in="SourceAlpha" type="matrix" values="0 0 0 0 0 0 0 0 0 0 0 0 0 0 0 0 0 0 127 0" result="hardAlpha"/>
<feOffset/>
<feGaussianBlur stdDeviation="2.75"/>
<feComposite in2="hardAlpha" operator="out"/>
<feColorMatrix type="matrix" values="0 0 0 0 1 0 0 0 0 1 0 0 0 0 1 0 0 0 0.6 0"/>
<feBlend mode="normal" in2="BackgroundImageFix" result="effect1_dropShadow_15_6"/>
<feBlend mode="normal" in="SourceGraphic" in2="effect1_dropShadow_15_6" result="shape"/>
</filter>
<filter id="filter5_d_15_6" x="546.173" y="338.5" width="22.3271" height="178.562" filterUnits="userSpaceOnUse" color-interpolation-filters="sRGB">
<feFlood flood-opacity="0" result="BackgroundImageFix"/>
<feColorMatrix in="SourceAlpha" type="matrix" values="0 0 0 0 0 0 0 0 0 0 0 0 0 0 0 0 0 0 127 0" result="hardAlpha"/>
<feOffset/>
<feGaussianBlur stdDeviation="2.75"/>
<feComposite in2="hardAlpha" operator="out"/>
<feColorMatrix type="matrix" values="0 0 0 0 1 0 0 0 0 1 0 0 0 0 1 0 0 0 0.6 0"/>
<feBlend mode="normal" in2="BackgroundImageFix" result="effect1_dropShadow_15_6"/>
<feBlend mode="normal" in="SourceGraphic" in2="effect1_dropShadow_15_6" result="shape"/>
</filter>
<filter id="filter6_d_15_6" x="577.5" y="344.822" width="102.735" height="313.678" filterUnits="userSpaceOnUse" color-interpolation-filters="sRGB">
<feFlood flood-opacity="0" result="BackgroundImageFix"/>
<feColorMatrix in="SourceAlpha" type="matrix" values="0 0 0 0 0 0 0 0 0 0 0 0 0 0 0 0 0 0 127 0" result="hardAlpha"/>
<feOffset/>
<feGaussianBlur stdDeviation="2.75"/>
<feComposite in2="hardAlpha" operator="out"/>
<feColorMatrix type="matrix" values="0 0 0 0 1 0 0 0 0 1 0 0 0 0 1 0 0 0 0.6 0"/>
<feBlend mode="normal" in2="BackgroundImageFix" result="effect1_dropShadow_15_6"/>
<feBlend mode="normal" in="SourceGraphic" in2="effect1_dropShadow_15_6" result="shape"/>
</filter>
<filter id="filter7_d_15_6" x="606" y="502.786" width="67.7002" height="173.214" filterUnits="userSpaceOnUse" color-interpolation-filters="sRGB">
<feFlood flood-opacity="0" result="BackgroundImageFix"/>
<feColorMatrix in="SourceAlpha" type="matrix" values="0 0 0 0 0 0 0 0 0 0 0 0 0 0 0 0 0 0 127 0" result="hardAlpha"/>
<feOffset/>
<feGaussianBlur stdDeviation="2.75"/>
<feComposite in2="hardAlpha" operator="out"/>
<feColorMatrix type="matrix" values="0 0 0 0 1 0 0 0 0 1 0 0 0 0 1 0 0 0 0.6 0"/>
<feBlend mode="normal" in2="BackgroundImageFix" result="effect1_dropShadow_15_6"/>
<feBlend mode="normal" in="SourceGraphic" in2="effect1_dropShadow_15_6" result="shape"/>
</filter>
<filter id="filter8_d_15_6" x="633.5" y="531.5" width="13" height="159" filterUnits="userSpaceOnUse" color-interpolation-filters="sRGB">
<feFlood flood-opacity="0" result="BackgroundImageFix"/>
<feColorMatrix in="SourceAlpha" type="matrix" values="0 0 0 0 0 0 0 0 0 0 0 0 0 0 0 0 0 0 127 0" result="hardAlpha"/>
<feOffset/>
<feGaussianBlur stdDeviation="2.75"/>
<feComposite in2="hardAlpha" operator="out"/>
<feColorMatrix type="matrix" values="0 0 0 0 1 0 0 0 0 1 0 0 0 0 1 0 0 0 0.6 0"/>
<feBlend mode="normal" in2="BackgroundImageFix" result="effect1_dropShadow_15_6"/>
<feBlend mode="normal" in="SourceGraphic" in2="effect1_dropShadow_15_6" result="shape"/>
</filter>
<filter id="filter9_d_15_6" x="658.5" y="557.5" width="13" height="161.5" filterUnits="userSpaceOnUse" color-interpolation-filters="sRGB">
<feFlood flood-opacity="0" result="BackgroundImageFix"/>
<feColorMatrix in="SourceAlpha" type="matrix" values="0 0 0 0 0 0 0 0 0 0 0 0 0 0 0 0 0 0 127 0" result="hardAlpha"/>
<feOffset/>
<feGaussianBlur stdDeviation="2.75"/>
<feComposite in2="hardAlpha" operator="out"/>
<feColorMatrix type="matrix" values="0 0 0 0 1 0 0 0 0 1 0 0 0 0 1 0 0 0 0.6 0"/>
<feBlend mode="normal" in2="BackgroundImageFix" result="effect1_dropShadow_15_6"/>
<feBlend mode="normal" in="SourceGraphic" in2="effect1_dropShadow_15_6" result="shape"/>
</filter>
<filter id="filter10_d_15_6" x="488" y="378" width="36" height="36" filterUnits="userSpaceOnUse" color-interpolation-filters="sRGB">
<feFlood flood-opacity="0" result="BackgroundImageFix"/>
<feColorMatrix in="SourceAlpha" type="matrix" values="0 0 0 0 0 0 0 0 0 0 0 0 0 0 0 0 0 0 127 0" result="hardAlpha"/>
<feOffset/>
<feGaussianBlur stdDeviation="5"/>
<feComposite in2="hardAlpha" operator="out"/>
<feColorMatrix type="matrix" values="0 0 0 0 1 0 0 0 0 1 0 0 0 0 1 0 0 0 1 0"/>
<feBlend mode="normal" in2="BackgroundImageFix" result="effect1_dropShadow_15_6"/>
<feBlend mode="normal" in="SourceGraphic" in2="effect1_dropShadow_15_6" result="shape"/>
</filter>
<filter id="filter11_d_15_6" x="472" y="262" width="36" height="36" filterUnits="userSpaceOnUse" color-interpolation-filters="sRGB">
<feFlood flood-opacity="0" result="BackgroundImageFix"/>
<feColorMatrix in="SourceAlpha" type="matrix" values="0 0 0 0 0 0 0 0 0 0 0 0 0 0 0 0 0 0 127 0" result="hardAlpha"/>
<feOffset/>
<feGaussianBlur stdDeviation="5"/>
<feComposite in2="hardAlpha" operator="out"/>
<feColorMatrix type="matrix" values="0 0 0 0 1 0 0 0 0 1 0 0 0 0 1 0 0 0 1 0"/>
<feBlend mode="normal" in2="BackgroundImageFix" result="effect1_dropShadow_15_6"/>
<feBlend mode="normal" in="SourceGraphic" in2="effect1_dropShadow_15_6" result="shape"/>
</filter>
<filter id="filter12_d_15_6" x="573" y="442" width="36" height="36" filterUnits="userSpaceOnUse" color-interpolation-filters="sRGB">
<feFlood flood-opacity="0" result="BackgroundImageFix"/>
<feColorMatrix in="SourceAlpha" type="matrix" values="0 0 0 0 0 0 0 0 0 0 0 0 0 0 0 0 0 0 127 0" result="hardAlpha"/>
<feOffset/>
<feGaussianBlur stdDeviation="5"/>
<feComposite in2="hardAlpha" operator="out"/>
<feColorMatrix type="matrix" values="0 0 0 0 1 0 0 0 0 1 0 0 0 0 1 0 0 0 1 0"/>
<feBlend mode="normal" in2="BackgroundImageFix" result="effect1_dropShadow_15_6"/>
<feBlend mode="normal" in="SourceGraphic" in2="effect1_dropShadow_15_6" result="shape"/>
</filter>
<filter id="filter13_d_15_6" x="544" y="326" width="36" height="36" filterUnits="userSpaceOnUse" color-interpolation-filters="sRGB">
<feFlood flood-opacity="0" result="BackgroundImageFix"/>
<feColorMatrix in="SourceAlpha" type="matrix" values="0 0 0 0 0 0 0 0 0 0 0 0 0 0 0 0 0 0 127 0" result="hardAlpha"/>
<feOffset/>
<feGaussianBlur stdDeviation="5"/>
<feComposite in2="hardAlpha" operator="out"/>
<feColorMatrix type="matrix" values="0 0 0 0 1 0 0 0 0 1 0 0 0 0 1 0 0 0 1 0"/>
<feBlend mode="normal" in2="BackgroundImageFix" result="effect1_dropShadow_15_6"/>
<feBlend mode="normal" in="SourceGraphic" in2="effect1_dropShadow_15_6" result="shape"/>
</filter>
<filter id="filter14_d_15_6" x="595" y="194" width="36" height="36" filterUnits="userSpaceOnUse" color-interpolation-filters="sRGB">
<feFlood flood-opacity="0" result="BackgroundImageFix"/>
<feColorMatrix in="SourceAlpha" type="matrix" values="0 0 0 0 0 0 0 0 0 0 0 0 0 0 0 0 0 0 127 0" result="hardAlpha"/>
<feOffset/>
<feGaussianBlur stdDeviation="5"/>
<feComposite in2="hardAlpha" operator="out"/>
<feColorMatrix type="matrix" values="0 0 0 0 1 0 0 0 0 1 0 0 0 0 1 0 0 0 1 0"/>
<feBlend mode="normal" in2="BackgroundImageFix" result="effect1_dropShadow_15_6"/>
<feBlend mode="normal" in="SourceGraphic" in2="effect1_dropShadow_15_6" result="shape"/>
</filter>
<filter id="filter15_d_15_6" x="622" y="667" width="36" height="36" filterUnits="userSpaceOnUse" color-interpolation-filters="sRGB">
<feFlood flood-opacity="0" result="BackgroundImageFix"/>
<feColorMatrix in="SourceAlpha" type="matrix" values="0 0 0 0 0 0 0 0 0 0 0 0 0 0 0 0 0 0 127 0" result="hardAlpha"/>
<feOffset/>
<feGaussianBlur stdDeviation="5"/>
<feComposite in2="hardAlpha" operator="out"/>
<feColorMatrix type="matrix" values="0 0 0 0 1 0 0 0 0 1 0 0 0 0 1 0 0 0 1 0"/>
<feBlend mode="normal" in2="BackgroundImageFix" result="effect1_dropShadow_15_6"/>
<feBlend mode="normal" in="SourceGraphic" in2="effect1_dropShadow_15_6" result="shape"/>
</filter>
<filter id="filter16_d_15_6" x="603" y="508" width="36" height="36" filterUnits="userSpaceOnUse" color-interpolation-filters="sRGB">
<feFlood flood-opacity="0" result="BackgroundImageFix"/>
<feColorMatrix in="SourceAlpha" type="matrix" values="0 0 0 0 0 0 0 0 0 0 0 0 0 0 0 0 0 0 127 0" result="hardAlpha"/>
<feOffset/>
<feGaussianBlur stdDeviation="5"/>
<feComposite in2="hardAlpha" operator="out"/>
<feColorMatrix type="matrix" values="0 0 0 0 1 0 0 0 0 1 0 0 0 0 1 0 0 0 1 0"/>
<feBlend mode="normal" in2="BackgroundImageFix" result="effect1_dropShadow_15_6"/>
<feBlend mode="normal" in="SourceGraphic" in2="effect1_dropShadow_15_6" result="shape"/>
</filter>
<filter id="filter17_d_15_6" x="306" y="499" width="36" height="36" filterUnits="userSpaceOnUse" color-interpolation-filters="sRGB">
<feFlood flood-opacity="0" result="BackgroundImageFix"/>
<feColorMatrix in="SourceAlpha" type="matrix" values="0 0 0 0 0 0 0 0 0 0 0 0 0 0 0 0 0 0 127 0" result="hardAlpha"/>
<feOffset/>
<feGaussianBlur stdDeviation="5"/>
<feComposite in2="hardAlpha" operator="out"/>
<feColorMatrix type="matrix" values="0 0 0 0 1 0 0 0 0 1 0 0 0 0 1 0 0 0 1 0"/>
<feBlend mode="normal" in2="BackgroundImageFix" result="effect1_dropShadow_15_6"/>
<feBlend mode="normal" in="SourceGraphic" in2="effect1_dropShadow_15_6" result="shape"/>
</filter>
<filter id="filter18_d_15_6" x="397" y="431" width="36" height="36" filterUnits="userSpaceOnUse" color-interpolation-filters="sRGB">
<feFlood flood-opacity="0" result="BackgroundImageFix"/>
<feColorMatrix in="SourceAlpha" type="matrix" values="0 0 0 0 0 0 0 0 0 0 0 0 0 0 0 0 0 0 127 0" result="hardAlpha"/>
<feOffset/>
<feGaussianBlur stdDeviation="5"/>
<feComposite in2="hardAlpha" operator="out"/>
<feColorMatrix type="matrix" values="0 0 0 0 1 0 0 0 0 1 0 0 0 0 1 0 0 0 1 0"/>
<feBlend mode="normal" in2="BackgroundImageFix" result="effect1_dropShadow_15_6"/>
<feBlend mode="normal" in="SourceGraphic" in2="effect1_dropShadow_15_6" result="shape"/>
</filter>
<filter id="filter19_d_15_6" x="358" y="555" width="36" height="36" filterUnits="userSpaceOnUse" color-interpolation-filters="sRGB">
<feFlood flood-opacity="0" result="BackgroundImageFix"/>
<feColorMatrix in="SourceAlpha" type="matrix" values="0 0 0 0 0 0 0 0 0 0 0 0 0 0 0 0 0 0 127 0" result="hardAlpha"/>
<feOffset/>
<feGaussianBlur stdDeviation="5"/>
<feComposite in2="hardAlpha" operator="out"/>
<feColorMatrix type="matrix" values="0 0 0 0 1 0 0 0 0 1 0 0 0 0 1 0 0 0 1 0"/>
<feBlend mode="normal" in2="BackgroundImageFix" result="effect1_dropShadow_15_6"/>
<feBlend mode="normal" in="SourceGraphic" in2="effect1_dropShadow_15_6" result="shape"/>
</filter>
</defs>
</svg>
